<svg width="21" height="20" viewBox="0 0 21 20" fill="none" xmlns="http://www.w3.org/2000/svg">
<path fill-rule="evenodd" clip-rule="evenodd" d="M15.6801 2.41C15.6801 1.08 16.7601 0 18.0901 0C19.4201 0 20.5001 1.08 20.5001 2.41C20.5001 3.74 19.4201 4.82 18.0901 4.82C16.7601 4.82 15.6801 3.74 15.6801 2.41ZM11.83 12.7593L14.72 9.0303L14.68 9.0503C14.84 8.8303 14.87 8.5503 14.76 8.3003C14.651 8.0503 14.41 7.8803 14.151 7.8603C13.88 7.8303 13.611 7.9503 13.45 8.1703L11.031 11.3003L8.26 9.1203C8.09 8.9903 7.89 8.9393 7.69 8.9603C7.491 8.9903 7.311 9.0993 7.19 9.2593L4.231 13.1103L4.17 13.2003C4 13.5193 4.08 13.9293 4.38 14.1503C4.52 14.2403 4.67 14.3003 4.84 14.3003C5.071 14.3103 5.29 14.1893 5.43 14.0003L7.94 10.7693L10.79 12.9103L10.88 12.9693C11.2 13.1393 11.6 13.0603 11.83 12.7593ZM13.95 1.7803C13.91 2.0303 13.89 2.2803 13.89 2.5303C13.89 4.7803 15.71 6.5993 17.95 6.5993C18.2 6.5993 18.44 6.5703 18.69 6.5303V14.5993C18.69 17.9903 16.69 20.0003 13.29 20.0003H5.901C2.5 20.0003 0.5 17.9903 0.5 14.5993V7.2003C0.5 3.8003 2.5 1.7803 5.901 1.7803H13.95Z" fill="#2CE7FF"/>
</svg>
