<svg width="21" height="20" viewBox="0 0 21 20" fill="none" xmlns="http://www.w3.org/2000/svg">
<path fill-rule="evenodd" clip-rule="evenodd" d="M15.5551 2.41C15.5551 1.08 16.6351 0 17.9651 0C19.2951 0 20.3751 1.08 20.3751 2.41C20.3751 3.74 19.2951 4.82 17.9651 4.82C16.6351 4.82 15.5551 3.74 15.5551 2.41ZM11.705 12.7593L14.595 9.0303L14.555 9.0503C14.715 8.8303 14.745 8.5503 14.635 8.3003C14.526 8.0503 14.285 7.8803 14.026 7.8603C13.755 7.8303 13.486 7.9503 13.325 8.1703L10.906 11.3003L8.135 9.1203C7.965 8.9903 7.765 8.9393 7.565 8.9603C7.366 8.9903 7.186 9.0993 7.065 9.2593L4.106 13.1103L4.045 13.2003C3.875 13.5193 3.955 13.9293 4.255 14.1503C4.395 14.2403 4.545 14.3003 4.715 14.3003C4.946 14.3103 5.165 14.1893 5.305 14.0003L7.815 10.7693L10.665 12.9103L10.755 12.9693C11.075 13.1393 11.475 13.0603 11.705 12.7593ZM13.825 1.7803C13.785 2.0303 13.765 2.2803 13.765 2.5303C13.765 4.7803 15.585 6.5993 17.825 6.5993C18.075 6.5993 18.315 6.5703 18.565 6.5303V14.5993C18.565 17.9903 16.565 20.0003 13.165 20.0003H5.776C2.375 20.0003 0.375 17.9903 0.375 14.5993V7.2003C0.375 3.8003 2.375 1.7803 5.776 1.7803H13.825Z" fill="#F5F5F5"/>
</svg>
