<svg width="25" height="24" viewBox="0 0 25 24" fill="none" xmlns="http://www.w3.org/2000/svg">
<path d="M17.25 3.56V2C17.25 1.59 16.91 1.25 16.5 1.25C16.09 1.25 15.75 1.59 15.75 2V3.5H9.24999V2C9.24999 1.59 8.90999 1.25 8.49999 1.25C8.08999 1.25 7.74999 1.59 7.74999 2V3.56C5.04999 3.81 3.73999 5.42 3.53999 7.81C3.51999 8.1 3.75999 8.34 4.03999 8.34H20.96C21.25 8.34 21.49 8.09 21.46 7.81C21.26 5.42 19.95 3.81 17.25 3.56Z" fill="#F5F5F5"/>
<path d="M20.5 9.83984H4.5C3.95 9.83984 3.5 10.2898 3.5 10.8398V16.9998C3.5 19.9998 5 21.9998 8.5 21.9998H13.43C14.12 21.9998 14.6 21.3298 14.38 20.6798C14.18 20.0998 14.01 19.4598 14.01 18.9998C14.01 15.9698 16.48 13.4998 19.51 13.4998C19.8 13.4998 20.09 13.5198 20.37 13.5698C20.97 13.6598 21.51 13.1898 21.51 12.5898V10.8498C21.5 10.2898 21.05 9.83984 20.5 9.83984ZM9.71 17.7098C9.61 17.7998 9.5 17.8698 9.38 17.9198C9.26 17.9698 9.13 17.9998 9 17.9998C8.87 17.9998 8.74 17.9698 8.62 17.9198C8.5 17.8698 8.39 17.7998 8.29 17.7098C8.11 17.5198 8 17.2598 8 16.9998C8 16.9398 8.01 16.8698 8.02 16.8098C8.03 16.7398 8.05 16.6798 8.08 16.6198C8.1 16.5598 8.13 16.4998 8.17 16.4398C8.2 16.3898 8.25 16.3398 8.29 16.2898C8.39 16.1998 8.5 16.1298 8.62 16.0798C8.86 15.9798 9.14 15.9798 9.38 16.0798C9.5 16.1298 9.61 16.1998 9.71 16.2898C9.75 16.3398 9.8 16.3898 9.83 16.4398C9.87 16.4998 9.9 16.5598 9.92 16.6198C9.95 16.6798 9.97 16.7398 9.98 16.8098C9.99 16.8698 10 16.9398 10 16.9998C10 17.2598 9.89 17.5198 9.71 17.7098ZM9.71 14.2098C9.61 14.2998 9.5 14.3698 9.38 14.4198C9.26 14.4698 9.13 14.4998 9 14.4998C8.87 14.4998 8.74 14.4698 8.62 14.4198C8.49 14.3698 8.39 14.2998 8.29 14.2098C8.11 14.0198 8 13.7598 8 13.4998C8 13.2398 8.11 12.9798 8.29 12.7898C8.39 12.6998 8.5 12.6298 8.62 12.5798C8.86 12.4798 9.14 12.4798 9.38 12.5798C9.5 12.6298 9.61 12.6998 9.71 12.7898C9.75 12.8398 9.8 12.8898 9.83 12.9398C9.87 12.9998 9.9 13.0598 9.92 13.1198C9.95 13.1798 9.97 13.2398 9.98 13.2998C9.99 13.3698 10 13.4398 10 13.4998C10 13.7598 9.89 14.0198 9.71 14.2098ZM13.21 14.2098C13.02 14.3898 12.77 14.4998 12.5 14.4998C12.37 14.4998 12.24 14.4698 12.12 14.4198C11.99 14.3698 11.89 14.2998 11.79 14.2098C11.61 14.0198 11.5 13.7598 11.5 13.4998C11.5 13.4398 11.51 13.3698 11.52 13.2998C11.53 13.2398 11.55 13.1798 11.58 13.1198C11.6 13.0598 11.63 12.9998 11.67 12.9398C11.71 12.8898 11.75 12.8398 11.79 12.7898C12.16 12.4198 12.83 12.4198 13.21 12.7898C13.25 12.8398 13.29 12.8898 13.33 12.9398C13.37 12.9998 13.4 13.0598 13.42 13.1198C13.45 13.1798 13.47 13.2398 13.48 13.2998C13.49 13.3698 13.5 13.4398 13.5 13.4998C13.5 13.7598 13.39 14.0198 13.21 14.2098Z" fill="#F5F5F5"/>
<path d="M22.33 16.17C20.77 14.61 18.23 14.61 16.67 16.17C15.11 17.73 15.11 20.27 16.67 21.83C18.23 23.39 20.77 23.39 22.33 21.83C23.89 20.27 23.89 17.73 22.33 16.17ZM21.57 19.56C21.44 19.7 21.25 19.78 21.04 19.78H20.3V20.56C20.3 20.77 20.22 20.95 20.08 21.09C19.94 21.23 19.76 21.31 19.55 21.31C19.14 21.31 18.8 20.97 18.8 20.56V19.78H18.05C17.64 19.78 17.3 19.45 17.3 19.03C17.3 18.62 17.64 18.28 18.05 18.28H18.8V17.57C18.8 17.16 19.13 16.82 19.55 16.82C19.96 16.82 20.3 17.16 20.3 17.57V18.28H21.04C21.46 18.28 21.79 18.62 21.79 19.03C21.79 19.24 21.71 19.43 21.57 19.56Z" fill="#F5F5F5"/>
</svg>
