<svg width="25" height="24" viewBox="0 0 25 24" fill="none" xmlns="http://www.w3.org/2000/svg">
<path d="M17.6252 3.56V2C17.6252 1.59 17.2852 1.25 16.8752 1.25C16.4652 1.25 16.1252 1.59 16.1252 2V3.5H9.62523V2C9.62523 1.59 9.28523 1.25 8.87523 1.25C8.46523 1.25 8.12523 1.59 8.12523 2V3.56C5.42523 3.81 4.11523 5.42 3.91523 7.81C3.89523 8.1 4.13523 8.34 4.41523 8.34H21.3352C21.6252 8.34 21.8652 8.09 21.8352 7.81C21.6352 5.42 20.3252 3.81 17.6252 3.56Z" fill="#2CE7FF"/>
<path d="M20.875 9.83984H4.875C4.325 9.83984 3.875 10.2898 3.875 10.8398V16.9998C3.875 19.9998 5.375 21.9998 8.875 21.9998H13.805C14.495 21.9998 14.975 21.3298 14.755 20.6798C14.555 20.0998 14.385 19.4598 14.385 18.9998C14.385 15.9698 16.855 13.4998 19.885 13.4998C20.175 13.4998 20.465 13.5198 20.745 13.5698C21.345 13.6598 21.885 13.1898 21.885 12.5898V10.8498C21.875 10.2898 21.425 9.83984 20.875 9.83984ZM10.085 17.7098C9.985 17.7998 9.875 17.8698 9.755 17.9198C9.635 17.9698 9.505 17.9998 9.375 17.9998C9.245 17.9998 9.115 17.9698 8.995 17.9198C8.875 17.8698 8.765 17.7998 8.665 17.7098C8.485 17.5198 8.375 17.2598 8.375 16.9998C8.375 16.9398 8.385 16.8698 8.395 16.8098C8.405 16.7398 8.425 16.6798 8.455 16.6198C8.475 16.5598 8.505 16.4998 8.545 16.4398C8.575 16.3898 8.625 16.3398 8.665 16.2898C8.765 16.1998 8.875 16.1298 8.995 16.0798C9.235 15.9798 9.515 15.9798 9.755 16.0798C9.875 16.1298 9.985 16.1998 10.085 16.2898C10.125 16.3398 10.175 16.3898 10.205 16.4398C10.245 16.4998 10.275 16.5598 10.295 16.6198C10.325 16.6798 10.345 16.7398 10.355 16.8098C10.365 16.8698 10.375 16.9398 10.375 16.9998C10.375 17.2598 10.265 17.5198 10.085 17.7098ZM10.085 14.2098C9.985 14.2998 9.875 14.3698 9.755 14.4198C9.635 14.4698 9.505 14.4998 9.375 14.4998C9.245 14.4998 9.115 14.4698 8.995 14.4198C8.865 14.3698 8.765 14.2998 8.665 14.2098C8.485 14.0198 8.375 13.7598 8.375 13.4998C8.375 13.2398 8.485 12.9798 8.665 12.7898C8.765 12.6998 8.875 12.6298 8.995 12.5798C9.235 12.4798 9.515 12.4798 9.755 12.5798C9.875 12.6298 9.985 12.6998 10.085 12.7898C10.125 12.8398 10.175 12.8898 10.205 12.9398C10.245 12.9998 10.275 13.0598 10.295 13.1198C10.325 13.1798 10.345 13.2398 10.355 13.2998C10.365 13.3698 10.375 13.4398 10.375 13.4998C10.375 13.7598 10.265 14.0198 10.085 14.2098ZM13.585 14.2098C13.395 14.3898 13.145 14.4998 12.875 14.4998C12.745 14.4998 12.615 14.4698 12.495 14.4198C12.365 14.3698 12.265 14.2998 12.165 14.2098C11.985 14.0198 11.875 13.7598 11.875 13.4998C11.875 13.4398 11.885 13.3698 11.895 13.2998C11.905 13.2398 11.925 13.1798 11.955 13.1198C11.975 13.0598 12.005 12.9998 12.045 12.9398C12.085 12.8898 12.125 12.8398 12.165 12.7898C12.535 12.4198 13.205 12.4198 13.585 12.7898C13.625 12.8398 13.665 12.8898 13.705 12.9398C13.745 12.9998 13.775 13.0598 13.795 13.1198C13.825 13.1798 13.845 13.2398 13.855 13.2998C13.865 13.3698 13.875 13.4398 13.875 13.4998C13.875 13.7598 13.765 14.0198 13.585 14.2098Z" fill="#2CE7FF"/>
<path d="M22.705 16.17C21.145 14.61 18.605 14.61 17.045 16.17C15.485 17.73 15.485 20.27 17.045 21.83C18.605 23.39 21.145 23.39 22.705 21.83C24.265 20.27 24.265 17.73 22.705 16.17ZM21.945 19.56C21.815 19.7 21.625 19.78 21.415 19.78H20.675V20.56C20.675 20.77 20.595 20.95 20.455 21.09C20.315 21.23 20.135 21.31 19.925 21.31C19.515 21.31 19.175 20.97 19.175 20.56V19.78H18.425C18.015 19.78 17.675 19.45 17.675 19.03C17.675 18.62 18.015 18.28 18.425 18.28H19.175V17.57C19.175 17.16 19.505 16.82 19.925 16.82C20.335 16.82 20.675 17.16 20.675 17.57V18.28H21.415C21.835 18.28 22.165 18.62 22.165 19.03C22.165 19.24 22.085 19.43 21.945 19.56Z" fill="#2CE7FF"/>
</svg>
