<svg width="25" height="24" viewBox="0 0 25 24" fill="none" xmlns="http://www.w3.org/2000/svg">
<path d="M21.5 22H3.5C3.09 22 2.75 21.66 2.75 21.25C2.75 20.84 3.09 20.5 3.5 20.5H21.5C21.91 20.5 22.25 20.84 22.25 21.25C22.25 21.66 21.91 22 21.5 22Z" fill="#2CE7FF"/>
<path d="M19.5206 3.47967C17.5806 1.53967 15.6806 1.48967 13.6906 3.47967L12.4806 4.68967C12.3806 4.78967 12.3406 4.94967 12.3806 5.08967C13.1406 7.73967 15.2606 9.85967 17.9106 10.6197C17.9506 10.6297 17.9906 10.6397 18.0306 10.6397C18.1406 10.6397 18.2406 10.5997 18.3206 10.5197L19.5206 9.30967C20.5106 8.32967 20.9906 7.37967 20.9906 6.41967C21.0006 5.42967 20.5206 4.46967 19.5206 3.47967Z" fill="#2CE7FF"/>
<path d="M16.1103 11.5308C15.8203 11.3908 15.5403 11.2508 15.2703 11.0908C15.0503 10.9608 14.8403 10.8208 14.6303 10.6708C14.4603 10.5608 14.2603 10.4008 14.0703 10.2408C14.0503 10.2308 13.9803 10.1708 13.9003 10.0908C13.5703 9.81078 13.2003 9.45078 12.8703 9.05078C12.8403 9.03078 12.7903 8.96078 12.7203 8.87078C12.6203 8.75078 12.4503 8.55078 12.3003 8.32078C12.1803 8.17078 12.0403 7.95078 11.9103 7.73078C11.7503 7.46078 11.6103 7.19078 11.4703 6.91078C11.4491 6.86539 11.4286 6.82022 11.4088 6.77532C11.2612 6.442 10.8265 6.34455 10.5688 6.60231L4.84032 12.3308C4.71032 12.4608 4.59032 12.7108 4.56032 12.8808L4.02032 16.7108C3.92032 17.3908 4.11032 18.0308 4.53032 18.4608C4.89032 18.8108 5.39032 19.0008 5.93032 19.0008C6.05032 19.0008 6.17032 18.9908 6.29032 18.9708L10.1303 18.4308C10.3103 18.4008 10.5603 18.2808 10.6803 18.1508L16.4016 12.4295C16.6612 12.1699 16.5633 11.7245 16.2257 11.5804C16.1877 11.5642 16.1492 11.5476 16.1103 11.5308Z" fill="#2CE7FF"/>
</svg>
