<svg width="25" height="24" viewBox="0 0 25 24" fill="none" xmlns="http://www.w3.org/2000/svg">
<path d="M21.625 22H3.625C3.215 22 2.875 21.66 2.875 21.25C2.875 20.84 3.215 20.5 3.625 20.5H21.625C22.035 20.5 22.375 20.84 22.375 21.25C22.375 21.66 22.035 22 21.625 22Z" fill="#F5F5F5"/>
<path d="M19.6456 3.47967C17.7056 1.53967 15.8056 1.48967 13.8156 3.47967L12.6056 4.68967C12.5056 4.78967 12.4656 4.94967 12.5056 5.08967C13.2656 7.73967 15.3856 9.85967 18.0356 10.6197C18.0756 10.6297 18.1156 10.6397 18.1556 10.6397C18.2656 10.6397 18.3656 10.5997 18.4456 10.5197L19.6456 9.30967C20.6356 8.32967 21.1156 7.37967 21.1156 6.41967C21.1256 5.42967 20.6456 4.46967 19.6456 3.47967Z" fill="#F5F5F5"/>
<path d="M16.2353 11.5308C15.9453 11.3908 15.6653 11.2508 15.3953 11.0908C15.1753 10.9608 14.9653 10.8208 14.7553 10.6708C14.5853 10.5608 14.3853 10.4008 14.1953 10.2408C14.1753 10.2308 14.1053 10.1708 14.0253 10.0908C13.6953 9.81078 13.3253 9.45078 12.9953 9.05078C12.9653 9.03078 12.9153 8.96078 12.8453 8.87078C12.7453 8.75078 12.5753 8.55078 12.4253 8.32078C12.3053 8.17078 12.1653 7.95078 12.0353 7.73078C11.8753 7.46078 11.7353 7.19078 11.5953 6.91078C11.5741 6.86539 11.5536 6.82022 11.5338 6.77532C11.3862 6.442 10.9515 6.34455 10.6938 6.60231L4.96532 12.3308C4.83532 12.4608 4.71532 12.7108 4.68532 12.8808L4.14532 16.7108C4.04532 17.3908 4.23532 18.0308 4.65532 18.4608C5.01532 18.8108 5.51532 19.0008 6.05532 19.0008C6.17532 19.0008 6.29532 18.9908 6.41532 18.9708L10.2553 18.4308C10.4353 18.4008 10.6853 18.2808 10.8053 18.1508L16.5266 12.4295C16.7862 12.1699 16.6883 11.7245 16.3507 11.5804C16.3127 11.5642 16.2742 11.5476 16.2353 11.5308Z" fill="#F5F5F5"/>
</svg>
