<svg width="25" height="24" viewBox="0 0 25 24" fill="none" xmlns="http://www.w3.org/2000/svg">
<path d="M16.315 2H7.935C4.295 2 2.125 4.17 2.125 7.81V16.19C2.125 19.83 4.295 22 7.935 22H16.315C19.955 22 22.125 19.83 22.125 16.19V7.81C22.125 4.17 19.955 2 16.315 2ZM10.095 14.9L7.845 17.15C7.695 17.3 7.505 17.37 7.315 17.37C7.125 17.37 6.925 17.3 6.785 17.15L6.035 16.4C5.735 16.11 5.735 15.63 6.035 15.34C6.325 15.05 6.795 15.05 7.095 15.34L7.315 15.56L9.035 13.84C9.325 13.55 9.795 13.55 10.095 13.84C10.385 14.13 10.385 14.61 10.095 14.9ZM10.095 7.9L7.845 10.15C7.695 10.3 7.505 10.37 7.315 10.37C7.125 10.37 6.925 10.3 6.785 10.15L6.035 9.4C5.735 9.11 5.735 8.63 6.035 8.34C6.325 8.05 6.795 8.05 7.095 8.34L7.315 8.56L9.035 6.84C9.325 6.55 9.795 6.55 10.095 6.84C10.385 7.13 10.385 7.61 10.095 7.9ZM17.685 16.62H12.435C12.025 16.62 11.685 16.28 11.685 15.87C11.685 15.46 12.025 15.12 12.435 15.12H17.685C18.105 15.12 18.435 15.46 18.435 15.87C18.435 16.28 18.105 16.62 17.685 16.62ZM17.685 9.62H12.435C12.025 9.62 11.685 9.28 11.685 8.87C11.685 8.46 12.025 8.12 12.435 8.12H17.685C18.105 8.12 18.435 8.46 18.435 8.87C18.435 9.28 18.105 9.62 17.685 9.62Z" fill="#F5F5F5"/>
</svg>
