<svg width="21" height="21" viewBox="0 0 21 21" fill="none" xmlns="http://www.w3.org/2000/svg">
<path d="M10.4032 0C4.64516 0 0 4.64516 0 10.4032C0 16.1613 4.64516 20.8065 10.4032 20.8065C16.1613 20.8065 20.8065 16.1613 20.8065 10.4032C20.8065 4.64516 16.1613 0 10.4032 0ZM15.3871 15C15.1935 15.2419 14.8065 15.2903 14.5645 15.0968L10.0161 11.4194C9.87097 11.371 9.77419 11.2258 9.77419 11.0806V11.0323C9.77419 10.9839 9.77419 10.9839 9.77419 10.9355V5.08065C9.77419 4.74194 10.0645 4.5 10.3548 4.5C10.6935 4.5 10.9355 4.79032 10.9355 5.08065V10.6452L15.2903 14.129C15.5323 14.371 15.5806 14.7581 15.3871 15Z" fill="white"/>
</svg>
