<svg width="1920" height="377" viewBox="0 0 1920 377" fill="none" xmlns="http://www.w3.org/2000/svg">
<path fill-rule="evenodd" clip-rule="evenodd" d="M1920 358.319C1658.86 369.99 1324.27 377 959.501 377C595.19 377 260.993 370.008 0 358.363V185H1920V358.319Z" fill="#C200DF"/>
<path fill-rule="evenodd" clip-rule="evenodd" d="M1920 317.842C1658.86 354.802 1324.27 377 959.501 377C595.19 377 260.993 354.858 0 317.982V0H1920V317.842Z" fill="url(#paint0_linear_293_208)"/>
<mask id="mask0_293_208" style="mask-type:alpha" maskUnits="userSpaceOnUse" x="0" y="0" width="1920" height="377">
<path fill-rule="evenodd" clip-rule="evenodd" d="M1920 317.842C1658.86 354.802 1324.27 377 959.501 377C595.19 377 260.993 354.858 0 317.982V0H1920V317.842Z" fill="url(#paint1_linear_293_208)"/>
</mask>
<g mask="url(#mask0_293_208)">
<path opacity="0.7" fill-rule="evenodd" clip-rule="evenodd" d="M1481.94 86.777L1592.71 91.756L1587.73 202.512L1476.96 197.533L1481.94 86.777ZM1597.69 -19L1708.46 -14.021L1703.48 96.735L1592.71 91.756L1597.69 -19ZM1703.48 96.735L1814.24 101.714L1809.26 212.47L1698.5 207.494L1703.48 96.735ZM1819.22 -9.042L1929.99 -4.063L1925.01 106.694L1814.24 101.714L1819.22 -9.042ZM1471.98 308.294L1582.75 313.273L1577.77 424.024L1467 419.045L1471.98 308.294ZM1587.73 202.512L1698.5 207.494L1693.52 318.25L1582.75 313.268L1587.73 202.512ZM1693.52 318.247L1804.28 323.226L1799.3 433.982L1688.54 429.003L1693.52 318.247ZM1809.26 212.47L1920.03 217.449L1915.05 328.205L1804.28 323.226L1809.26 212.47ZM1036.94 66.777L1147.71 71.756L1142.73 182.512L1031.96 177.533L1036.94 66.777ZM1152.69 -39L1263.46 -34.021L1258.48 76.735L1147.71 71.756L1152.69 -39ZM1258.48 76.735L1369.24 81.714L1364.26 192.47L1253.5 187.494L1258.48 76.735ZM1374.22 -29.042L1484.99 -24.063L1480.01 86.694L1369.24 81.714L1374.22 -29.042ZM1026.98 288.294L1137.75 293.273L1132.77 404.024L1022 399.045L1026.98 288.294ZM1142.73 182.512L1253.5 187.494L1248.52 298.25L1137.75 293.268L1142.73 182.512ZM1248.52 298.247L1359.29 303.226L1354.3 413.982L1243.54 409.003L1248.52 298.247ZM1364.26 192.47L1475.03 197.449L1470.05 308.205L1359.29 303.226L1364.26 192.47Z" fill="url(#paint2_linear_293_208)"/>
</g>
<defs>
<linearGradient id="paint0_linear_293_208" x1="1920" y1="377" x2="1920" y2="0" gradientUnits="userSpaceOnUse">
<stop stop-color="#5A00AF"/>
<stop offset="1" stop-color="#7D34D4"/>
<stop offset="1" stop-color="#A247FF"/>
</linearGradient>
<linearGradient id="paint1_linear_293_208" x1="1920" y1="377" x2="1920" y2="0" gradientUnits="userSpaceOnUse">
<stop stop-color="#5A00AF"/>
<stop offset="1" stop-color="#7D34D4"/>
<stop offset="1" stop-color="#A247FF"/>
</linearGradient>
<linearGradient id="paint2_linear_293_208" x1="1476" y1="-39.006" x2="1476" y2="433.994" gradientUnits="userSpaceOnUse">
<stop stop-color="#D451FF"/>
<stop offset="1" stop-color="#5F08B4" stop-opacity="0"/>
</linearGradient>
</defs>
</svg>
