<svg width="22" height="22" viewBox="0 0 22 22" fill="none" xmlns="http://www.w3.org/2000/svg">
<path fill-rule="evenodd" clip-rule="evenodd" d="M2.72544 14.8304H8.03005C8.2626 14.8304 8.49442 14.9522 8.54958 15.1073L10.6997 21.1496C10.8626 21.6076 10.6572 22 10.2317 22H0.523674C0.0981393 22 -0.107163 21.6076 0.0558137 21.1496L2.20591 15.1073C2.26112 14.9522 2.49293 14.8304 2.72544 14.8304ZM13.9347 14.8304H19.2393C19.4719 14.8304 19.7037 14.9522 19.7589 15.1073L21.909 21.1496C22.0719 21.6076 21.8665 22 21.441 22H11.733C11.3074 22 11.1021 21.6076 11.2651 21.1496L13.4152 15.1073C13.4704 14.9522 13.7022 14.8304 13.9347 14.8304ZM8.35335 6.23661H13.658C13.8905 6.23661 14.1223 6.35844 14.1775 6.51352L16.3276 12.5559C16.4905 13.0138 16.2851 13.4062 15.8596 13.4062H6.15158C5.72605 13.4062 5.52074 13.0138 5.68372 12.5559L7.83381 6.51352C7.88902 6.35844 8.12084 6.23661 8.35335 6.23661ZM10.7696 0C10.8929 0 11.0112 0.0517377 11.0985 0.143831C11.1857 0.235925 11.2347 0.360831 11.2347 0.491071V2.55357C11.2347 2.68381 11.1857 2.80872 11.0985 2.90081C11.0112 2.99291 10.8929 3.04464 10.7696 3.04464C10.6462 3.04464 10.5279 2.99291 10.4407 2.90081C10.3535 2.80872 10.3045 2.68381 10.3045 2.55357V0.491071C10.3045 0.360831 10.3535 0.235925 10.4407 0.143831C10.5279 0.0517377 10.6462 0 10.7696 0V0ZM18.351 3.4375H18.4905C18.6139 3.4375 18.7322 3.48924 18.8194 3.58133C18.9066 3.67343 18.9556 3.79833 18.9556 3.92857V6.38393C18.9556 6.51417 18.9066 6.63907 18.8194 6.73117C18.7322 6.82326 18.6139 6.875 18.4905 6.875H18.351C18.2276 6.875 18.1093 6.82326 18.0221 6.73117C17.9349 6.63907 17.8859 6.51417 17.8859 6.38393V3.92857C17.8859 3.79833 17.9349 3.67343 18.0221 3.58133C18.1093 3.48924 18.2276 3.4375 18.351 3.4375V3.4375ZM17.2812 4.61607H19.6068C19.7301 4.61607 19.8484 4.66781 19.9357 4.7599C20.0229 4.852 20.0719 4.9769 20.0719 5.10714V5.25446C20.0719 5.3847 20.0229 5.50961 19.9357 5.6017C19.8484 5.6938 19.7301 5.74554 19.6068 5.74554H17.2812C17.1579 5.74554 17.0395 5.6938 16.9523 5.6017C16.8651 5.50961 16.8161 5.3847 16.8161 5.25446V5.10714C16.8161 4.9769 16.8651 4.852 16.9523 4.7599C17.0395 4.66781 17.1579 4.61607 17.2812 4.61607V4.61607ZM3.2347 6.33482H3.37423C3.49759 6.33482 3.61589 6.38656 3.70312 6.47865C3.79035 6.57075 3.83935 6.69565 3.83935 6.82589V9.28125C3.83935 9.41149 3.79035 9.5364 3.70312 9.62849C3.61589 9.72058 3.49759 9.77232 3.37423 9.77232H3.2347C3.11134 9.77232 2.99304 9.72058 2.90581 9.62849C2.81858 9.5364 2.76958 9.41149 2.76958 9.28125V6.82589C2.76958 6.69565 2.81858 6.57075 2.90581 6.47865C2.99304 6.38656 3.11134 6.33482 3.2347 6.33482ZM2.16493 7.51339H4.49051C4.61387 7.51339 4.73217 7.56513 4.8194 7.65722C4.90662 7.74932 4.95563 7.87422 4.95563 8.00446V8.15179C4.95563 8.28203 4.90662 8.40693 4.8194 8.49903C4.73217 8.59112 4.61387 8.64286 4.49051 8.64286H2.16493C2.04157 8.64286 1.92327 8.59112 1.83604 8.49903C1.74882 8.40693 1.69981 8.28203 1.69981 8.15179V8.00446C1.69981 7.87422 1.74882 7.74932 1.83604 7.65722C1.92327 7.56513 2.04157 7.51339 2.16493 7.51339V7.51339ZM14.3208 1.23519C14.3776 1.25878 14.4295 1.29397 14.4735 1.33873C14.5175 1.3835 14.5527 1.43698 14.5771 1.49611C14.6015 1.55525 14.6146 1.61887 14.6157 1.68336C14.6168 1.74785 14.6059 1.81194 14.5835 1.87196L14.0075 3.39821C13.9621 3.51899 13.8731 3.61582 13.7602 3.66749C13.6473 3.71916 13.5195 3.72146 13.405 3.67387C13.2904 3.62629 13.1984 3.5327 13.1491 3.41363C13.0998 3.29455 13.0972 3.15969 13.1419 3.0386L13.7177 1.5125C13.74 1.45248 13.7734 1.39769 13.8158 1.35127C13.8582 1.30485 13.9088 1.2677 13.9648 1.24195C14.0208 1.2162 14.0811 1.20235 14.1422 1.20119C14.2032 1.20003 14.2639 1.21158 14.3208 1.23519V1.23519ZM7.24693 1.21211C7.13305 1.26065 7.04191 1.35468 6.99332 1.47377C6.94473 1.59286 6.94262 1.72738 6.98744 1.8481L7.55656 3.37268C7.57823 3.43238 7.61091 3.48695 7.65268 3.53324C7.69446 3.57953 7.74451 3.61662 7.79994 3.64236C7.85538 3.6681 7.9151 3.68198 7.97564 3.68321C8.03619 3.68443 8.09637 3.67297 8.1527 3.6495C8.26658 3.60096 8.35772 3.50693 8.40631 3.38784C8.4549 3.26875 8.45701 3.13423 8.41218 3.01351L7.84307 1.48893C7.82139 1.42923 7.78871 1.37466 7.74693 1.32838C7.70516 1.2821 7.6551 1.24502 7.59967 1.21928C7.54424 1.19354 7.48452 1.17966 7.42397 1.17844C7.36343 1.17722 7.30325 1.18868 7.24693 1.21216V1.21211Z" fill="white"/>
</svg>
