<svg width="34" height="24" viewBox="0 0 34 24" fill="none" xmlns="http://www.w3.org/2000/svg">
<circle cx="17" cy="12" r="12" fill="white"/>
<path d="M17.7881 16.6857C16.8124 17.1428 15.6115 16.6857 15.1612 15.6952L12.0089 8.45712C11.5585 7.46664 12.0089 6.24759 12.9846 5.79045C13.9603 5.33331 15.1612 5.79045 15.6115 6.78093L18.8389 14.019C19.2142 15.0857 18.7638 16.2285 17.7881 16.6857Z" fill="url(#paint0_linear_63_3)"/>
<path d="M14.6357 5.79045C15.6115 6.24759 16.0618 7.39045 15.6115 8.45712L11.7836 17.1428C11.3333 18.1333 10.2075 18.5904 9.15671 18.1333C8.18099 17.6762 7.73066 16.5333 8.18099 15.4666L12.0088 6.78093C12.4591 5.79045 13.66 5.33331 14.6357 5.79045Z" fill="url(#paint1_linear_63_3)"/>
<path d="M24.8433 18.1333C23.8675 18.5904 22.6667 18.1333 22.2163 17.1428L18.3885 8.45712C17.9382 7.46664 18.3885 6.24759 19.3642 5.79045C20.3399 5.33331 21.5408 5.79045 21.9912 6.78093L25.819 15.4666C26.2693 16.5333 25.819 17.6762 24.8433 18.1333Z" fill="url(#paint2_linear_63_3)"/>
<path d="M24.8432 18.1333C23.8675 18.5905 22.6666 18.1333 22.2163 17.1429L21.3907 15.3143C20.9404 14.3238 21.3907 13.1048 22.3664 12.6476C23.3421 12.1905 24.543 12.6476 24.9934 13.6381L25.819 15.4667C26.2693 16.5333 25.819 17.6762 24.8432 18.1333Z" fill="url(#paint3_linear_63_3)"/>
<path d="M21.0154 5.86662C21.9911 6.32376 22.4414 7.46662 21.9911 8.53329L18.7637 15.6952C18.3134 16.6857 17.1876 17.1428 16.1368 16.6857C15.1611 16.2285 14.7108 15.0857 15.1611 14.019L18.3885 6.8571C18.8388 5.86662 19.9646 5.40948 21.0154 5.86662Z" fill="url(#paint4_linear_63_3)"/>
<defs>
<linearGradient id="paint0_linear_63_3" x1="13.8117" y1="11.5736" x2="19.2238" y2="11.0545" gradientUnits="userSpaceOnUse">
<stop offset="0.07" stop-color="#656BB2"/>
<stop offset="0.33" stop-color="#7558A5"/>
<stop offset="0.63" stop-color="#7251A1"/>
<stop offset="0.9" stop-color="#7C53A2"/>
</linearGradient>
<linearGradient id="paint1_linear_63_3" x1="10.7309" y1="11.8793" x2="17.1462" y2="12.3551" gradientUnits="userSpaceOnUse">
<stop offset="0.07" stop-color="#5B93CE"/>
<stop offset="0.39" stop-color="#6677B9"/>
<stop offset="0.59" stop-color="#6973B7"/>
<stop offset="0.9" stop-color="#7365AD"/>
</linearGradient>
<linearGradient id="paint2_linear_63_3" x1="19.0001" y1="10.4046" x2="25.9996" y2="13.8719" gradientUnits="userSpaceOnUse">
<stop offset="0.18" stop-color="#8C2472"/>
<stop offset="0.43" stop-color="#C81689"/>
<stop offset="0.59" stop-color="#D51083"/>
<stop offset="0.83" stop-color="#D11285"/>
<stop offset="1" stop-color="#BB258F"/>
</linearGradient>
<linearGradient id="paint3_linear_63_3" x1="23.6723" y1="15.3907" x2="24.0371" y2="10.7443" gradientUnits="userSpaceOnUse">
<stop offset="0.84" stop-color="#D11285"/>
<stop offset="1" stop-color="#BB258F"/>
</linearGradient>
<linearGradient id="paint4_linear_63_3" x1="15.3659" y1="10.7616" x2="21.5932" y2="11.124" gradientUnits="userSpaceOnUse">
<stop offset="0.07" stop-color="#7563AC"/>
<stop offset="0.33" stop-color="#8F4E9E"/>
<stop offset="0.63" stop-color="#A33D96"/>
<stop offset="0.68" stop-color="#A83995"/>
<stop offset="0.9" stop-color="#BD2890"/>
</linearGradient>
</defs>
</svg>
