<svg width="303" height="303" viewBox="0 0 303 303" fill="none" xmlns="http://www.w3.org/2000/svg">
<path fill-rule="evenodd" clip-rule="evenodd" d="M20.0001 0H283C294.045 0 303 8.95426 303 19.9998V283C303 294.046 294.045 303 283 303H20.0001C8.95426 303 0 294.046 0 283V19.9998C0 8.95426 8.95426 0 20.0001 0Z" fill="url(#paint0_linear_293_300)"/>
<mask id="mask0_293_300" style="mask-type:alpha" maskUnits="userSpaceOnUse" x="0" y="0" width="303" height="303">
<path fill-rule="evenodd" clip-rule="evenodd" d="M20.0001 0H283C294.045 0 303 8.95426 303 19.9998V283C303 294.046 294.045 303 283 303H20.0001C8.95426 303 0 294.046 0 283V19.9998C0 8.95426 8.95426 0 20.0001 0Z" fill="black"/>
</mask>
<g mask="url(#mask0_293_300)">
<path opacity="0.7" fill-rule="evenodd" clip-rule="evenodd" d="M157.962 -8.26966L74.9456 -11.9956L71.2136 70.8879L-11.802 67.1619L-15.5339 150.046L67.482 153.772L63.75 236.655L-19.2656 232.929L-22.9976 315.813L60.0184 319.539L63.75 236.655L146.766 240.381L143.034 323.265L226.05 326.991L229.782 244.107L312.797 247.833L316.529 164.95L233.513 161.224L237.245 78.3398L320.261 82.0657L323.993 -0.817759L240.977 -4.54371L237.245 78.3398L154.23 74.6138L157.962 -8.26966ZM150.498 157.498L67.482 153.772L71.2136 70.8879L154.23 74.6138L150.498 157.498ZM150.498 157.498L233.513 161.224L229.782 244.107L146.766 240.381L150.498 157.498Z" fill="url(#paint1_linear_293_300)"/>
</g>
<defs>
<linearGradient id="paint0_linear_293_300" x1="151.5" y1="0" x2="151.5" y2="303" gradientUnits="userSpaceOnUse">
<stop stop-color="#FFA904"/>
<stop offset="1" stop-color="#FFDA3A"/>
</linearGradient>
<linearGradient id="paint1_linear_293_300" x1="-22.9976" y1="-11.9956" x2="-22.9976" y2="326.991" gradientUnits="userSpaceOnUse">
<stop stop-color="#FF7C07"/>
<stop offset="1" stop-color="#FFD939" stop-opacity="0.01"/>
</linearGradient>
</defs>
</svg>
