<svg width="59" height="55" viewBox="0 0 59 55" fill="none" xmlns="http://www.w3.org/2000/svg">
<circle cx="34.5" cy="32.499" r="22.5" fill="white"/>
<path d="M35.6358 36.3324C34.2296 36.9991 32.4989 36.3324 31.8499 34.888L27.3069 24.3324C26.6579 22.888 27.3069 21.1102 28.7131 20.4435C30.1192 19.7769 31.8499 20.4435 32.4989 21.888L37.1502 32.4435C37.691 33.9991 37.042 35.6657 35.6358 36.3324Z" fill="url(#paint0_linear_203_305)"/>
<path d="M31.0927 20.4435C32.4989 21.1102 33.1479 22.7769 32.4989 24.3324L26.9823 36.9991C26.3333 38.4435 24.7108 39.1102 23.1965 38.4435C21.7903 37.7769 21.1413 36.1102 21.7903 34.5546L27.3068 21.888C27.9558 20.4435 29.6865 19.7769 31.0927 20.4435Z" fill="url(#paint1_linear_203_305)"/>
<path d="M45.8035 38.4435C44.3973 39.1102 42.6667 38.4435 42.0177 36.9991L36.5011 24.3324C35.8521 22.888 36.5011 21.1102 37.9073 20.4435C39.3135 19.7769 41.0441 20.4435 41.6932 21.888L47.2097 34.5546C47.8587 36.1102 47.2097 37.7769 45.8035 38.4435Z" fill="url(#paint2_linear_203_305)"/>
<path d="M45.8035 38.4435C44.3973 39.1102 42.6666 38.4435 42.0176 36.9991L40.8278 34.3324C40.1788 32.888 40.8278 31.1102 42.2339 30.4435C43.6401 29.7769 45.3708 30.4435 46.0198 31.888L47.2097 34.5546C47.8587 36.1102 47.2097 37.7769 45.8035 38.4435Z" fill="url(#paint3_linear_203_305)"/>
<path d="M40.2869 20.5544C41.6931 21.221 42.3421 22.8877 41.6931 24.4432L37.0419 34.8877C36.3929 36.3321 34.7704 36.9988 33.256 36.3321C31.8499 35.6655 31.2009 33.9988 31.8499 32.4432L36.5011 21.9988C37.1501 20.5544 38.7726 19.8877 40.2869 20.5544Z" fill="url(#paint4_linear_203_305)"/>
<path d="M32.3995 40.799V44.999H31.9735V41.639L30.3235 44.465H30.1135L28.4635 41.657V44.999H28.0375V40.799H28.4035L30.2275 43.913L32.0335 40.799H32.3995ZM36.738 44.615V44.999H33.768V40.799H36.648V41.183H34.212V42.677H36.384V43.055H34.212V44.615H36.738ZM40.3629 44.999L39.0069 43.151L37.6569 44.999H37.1469L38.7429 42.839L37.2489 40.799H37.7589L39.0249 42.515L40.2849 40.799H40.7649L39.2769 42.827L40.8789 44.999H40.3629ZM41.5199 40.799H41.9639V44.999H41.5199V40.799Z" fill="black"/>
<rect y="-0.000976562" width="32" height="18" rx="5" fill="#FF4043"/>
<path d="M3.01553 5.59902H4.95953V12.415H9.17153V13.999H3.01553V5.59902ZM10.2577 5.59902H12.2017V13.999H10.2577V5.59902ZM22.2243 5.59902L18.5883 13.999H16.6683L13.0443 5.59902H15.1443L17.7003 11.599L20.2923 5.59902H22.2243ZM29.4297 12.439V13.999H22.9257V5.59902H29.2737V7.15902H24.8577V8.98302H28.7577V10.495H24.8577V12.439H29.4297Z" fill="white"/>
<defs>
<linearGradient id="paint0_linear_203_305" x1="29.9051" y1="28.8773" x2="37.7065" y2="28.1377" gradientUnits="userSpaceOnUse">
<stop offset="0.07" stop-color="#656BB2"/>
<stop offset="0.33" stop-color="#7558A5"/>
<stop offset="0.63" stop-color="#7251A1"/>
<stop offset="0.9" stop-color="#7C53A2"/>
</linearGradient>
<linearGradient id="paint1_linear_203_305" x1="25.4651" y1="29.3232" x2="34.712" y2="30.0009" gradientUnits="userSpaceOnUse">
<stop offset="0.07" stop-color="#5B93CE"/>
<stop offset="0.39" stop-color="#6677B9"/>
<stop offset="0.59" stop-color="#6973B7"/>
<stop offset="0.9" stop-color="#7365AD"/>
</linearGradient>
<linearGradient id="paint2_linear_203_305" x1="37.3826" y1="27.1725" x2="47.5167" y2="32.1335" gradientUnits="userSpaceOnUse">
<stop offset="0.18" stop-color="#8C2472"/>
<stop offset="0.43" stop-color="#C81689"/>
<stop offset="0.59" stop-color="#D51083"/>
<stop offset="0.83" stop-color="#D11285"/>
<stop offset="1" stop-color="#BB258F"/>
</linearGradient>
<linearGradient id="paint3_linear_203_305" x1="44.1159" y1="34.4439" x2="44.6542" y2="27.6688" gradientUnits="userSpaceOnUse">
<stop offset="0.84" stop-color="#D11285"/>
<stop offset="1" stop-color="#BB258F"/>
</linearGradient>
<linearGradient id="paint4_linear_203_305" x1="32.1451" y1="27.6929" x2="41.1204" y2="28.209" gradientUnits="userSpaceOnUse">
<stop offset="0.07" stop-color="#7563AC"/>
<stop offset="0.33" stop-color="#8F4E9E"/>
<stop offset="0.63" stop-color="#A33D96"/>
<stop offset="0.68" stop-color="#A83995"/>
<stop offset="0.9" stop-color="#BD2890"/>
</linearGradient>
</defs>
</svg>
